<?xml version="1.0" encoding="UTF-8" standalone="no"?>
<!-- Created with Inkscape (http://www.inkscape.org/) -->

<svg
   xmlns:dc="http://purl.org/dc/elements/1.1/"
   xmlns:cc="http://creativecommons.org/ns#"
   xmlns:rdf="http://www.w3.org/1999/02/22-rdf-syntax-ns#"
   xmlns:svg="http://www.w3.org/2000/svg"
   xmlns="http://www.w3.org/2000/svg"
   xmlns:sodipodi="http://sodipodi.sourceforge.net/DTD/sodipodi-0.dtd"
   xmlns:inkscape="http://www.inkscape.org/namespaces/inkscape"
   version="1.1"
   id="svg5628"
   width="2048"
   height="2048"
   viewBox="0 0 2048 2048"
   sodipodi:docname="Red.svg"
   inkscape:version="0.92.4 (5da689c313, 2019-01-14)">
  <metadata
     id="metadata5634">
    <rdf:RDF>
      <cc:Work
         rdf:about="">
        <dc:format>image/svg+xml</dc:format>
        <dc:type
           rdf:resource="http://purl.org/dc/dcmitype/StillImage" />
        <dc:title></dc:title>
      </cc:Work>
    </rdf:RDF>
  </metadata>
  <defs
     id="defs5632" />
  <sodipodi:namedview
     pagecolor="#ffffff"
     bordercolor="#666666"
     borderopacity="1"
     objecttolerance="10"
     gridtolerance="10"
     guidetolerance="10"
     inkscape:pageopacity="0"
     inkscape:pageshadow="2"
     inkscape:window-width="1920"
     inkscape:window-height="1001"
     id="namedview5630"
     showgrid="false"
     inkscape:pagecheckerboard="true"
     inkscape:zoom="0.32593203"
     inkscape:cx="738.50615"
     inkscape:cy="960.18052"
     inkscape:window-x="2391"
     inkscape:window-y="-9"
     inkscape:window-maximized="1"
     inkscape:current-layer="svg5628"
     inkscape:snap-bbox="true"
     inkscape:bbox-paths="true"
     inkscape:bbox-nodes="true"
     inkscape:snap-bbox-edge-midpoints="true"
     inkscape:snap-bbox-midpoints="true"
     inkscape:snap-page="true"
     inkscape:snap-object-midpoints="true"
     inkscape:object-paths="true"
     inkscape:snap-nodes="false"
     inkscape:snap-center="true" />
  <path
     style="fill:#ff0000;fill-opacity:1;stroke:none;stroke-width:1.62971902px;stroke-linecap:butt;stroke-linejoin:miter;stroke-opacity:1"
     d="M 815.10225,388.78779 238.30508,681.8523 124.55098,883.10958 7.6717595,964.36251 c 0,0 -19.3756875,55.62699 5.0001745,100.00349 24.375885,44.3766 100.003616,-58.752 100.003616,-58.752 0,0 -6.25023,25.6259 3.12512,39.3764 9.37534,13.7505 61.25221,-18.1256 62.50225,-49.37679 1.25005,-31.2511 2.50009,-52.50187 21.25078,-63.75227 18.75068,-11.2504 50.62682,40.62647 50.62682,40.62647 L 375.18505,828.7326 460.81314,787.48113 468.3134,905.6104 c 0,0 -97.50352,86.25311 -137.50497,193.7569 -40.00144,107.5039 15.00054,133.7548 15.00054,133.7548 0,0 -22.5008,6.2503 -21.25076,37.5014 1.25004,31.2512 11.2504,51.2518 11.2504,51.2518 l -21.00242,-2.3246 -46.84752,174.1314 c 0,0 -72.48107,84.8558 -83.08804,124.6319 -10.60699,39.7762 -24.74964,91.9273 -0.88393,151.1496 23.86571,59.2224 103.4181,54.8027 124.63207,43.3118 21.21398,-11.4909 224.51451,-304.9508 249.26415,-310.2543 24.74963,-5.3035 274.19359,-256.8984 274.19359,-256.8984 l 412.51499,-195.0071 208.7574,-42.5015 235.0085,20.0007 -30.001,-97.5035 c 0,0 52.5019,13.75049 75.0028,10.00036 22.5007,-3.75015 50.0018,-23.75085 50.0018,-23.75085 l 88.7531,48.7517 58.7522,-106.25378 80.0029,-76.25277 37.5013,-90.00325 c 0,0 -1.25,-23.75085 -17.5008,-40.00143 -16.2506,-16.2506 -45.0015,-5.0002 -62.5021,18.75066 -17.5005,23.75085 -22.5009,56.25204 -22.5009,56.25204 l -176.2562,86.25312 -546.2698,12.50045 -202.5074,41.25148 -3.7501,-31.25112 241.2586,-76.25275 -18.7505,-45.00163 c 0,0 40.0015,-5.00018 85.003,-28.75104 45.0017,-23.75085 7.5004,-100.00362 6.2502,-92.50333 -1.25,7.50026 -16.2506,-36.25132 -70.0025,-32.50118 -53.7518,3.75013 -76.2528,96.25347 -76.2528,96.25347 l -120.0043,10.00036 -37.5013,-103.75374 27.5011,25.00089 62.8167,-56.48297 13.0505,9.96787 9.4892,-55.4895 48.1735,-36.6825 v -26.51745 l 14.1426,9.72307 23.8658,-25.63355 -2.6517,-52.151 c 0,0 -32.705,-78.66848 -106.9538,-107.8377 -74.249,-29.16919 -120.21257,-7.07132 -155.5691,7.95526 -35.35664,15.02656 -53.9189,56.57057 -61.87412,70.71322 -7.95522,14.14266 -16.99591,19.9265 -20.12108,38.98968 -3.12505,19.0632 1.25014,56.56455 1.25014,56.56455 l -40.93904,11.56292 z"
     id="path6181"
     inkscape:connector-curvature="0"
     sodipodi:nodetypes="ccccscsssccccscscccssssccccccccccccccccccccccsccccccccccccccscccc" />
  <path
     inkscape:connector-curvature="0"
     id="path6183"
     d="m 864,548.88135 -353.92433,179.82518 -69.79983,123.49201 -71.7174,49.85702 c 0,0 -11.88898,34.13288 3.06812,61.36248 14.95711,27.22961 61.36249,-36.05046 61.36249,-36.05046 0,0 -3.83516,15.72414 1.91758,24.16148 5.75273,8.43734 37.58452,-11.12195 38.35155,-30.29773 0.76703,-19.17577 1.53406,-32.2153 13.03953,-39.11858 11.50547,-6.90328 31.06476,24.92851 31.06476,24.92851 l 76.70311,-88.20858 52.54163,-25.31202 4.60218,72.48444 c 0,0 -59.82842,52.92514 -84.37342,118.88981 -24.54499,65.96469 9.20438,82.07229 9.20438,82.07229 0,0 -13.80656,3.8352 -13.03953,23.011 0.76703,19.1758 6.90328,31.4482 6.90328,31.4482 L 557.01695,1120 528.27119,1226.8475 c 0,0 -44.47458,52.0678 -50.98305,76.4745 -6.50848,24.4068 -15.18644,56.4068 -0.54238,92.7458 14.64407,36.339 63.45763,33.6271 76.47458,26.5763 13.01695,-7.0509 137.76271,-187.1187 152.94915,-190.3729 15.18644,-3.2543 168.24595,-157.6336 168.24595,-157.6336 l 253.12026,-119.6569 128.0942,-26.07905 144.2018,12.27249 -18.4087,-59.82842 c 0,0 32.2153,8.43734 46.0219,6.13625 13.8065,-2.3011 30.6812,-14.57359 30.6812,-14.57359 l 54.4592,29.91421 36.0505,-65.19764 49.09,-46.7889 23.0109,-55.22624 c 0,0 -0.767,-14.57359 -10.7385,-24.54499 -9.9714,-9.97141 -27.6131,-3.06813 -38.3515,11.50546 -10.7384,14.57359 -13.8066,34.5164 -13.8066,34.5164 l -108.1513,52.92515 -335.1926,7.67031 -124.25907,25.31202 -2.30109,-19.17577 148.03696,-46.7889 -11.5054,-27.61312 c 0,0 24.545,-3.06812 52.1581,-17.64171 27.6131,-14.57359 4.6022,-61.36249 3.8351,-56.7603 -0.767,4.60218 -9.9714,-22.24391 -42.9537,-19.94281 -32.9823,2.30109 -46.7889,59.06139 -46.7889,59.06139 l -73.635,6.13625 -23.01091,-63.66358 16.87471,15.34062 38.5445,-34.6581 8.9492,16 4.8813,-43.9322 29.5594,-22.50848 v -16.27118 l 8.6779,5.9661 14.6441,-15.72881 -1.6271,-32 c 0,0 -20.0678,-48.27119 -65.6271,-66.1695 -45.5594,-17.8983 -73.76276,-4.33898 -95.45767,4.88136 -21.69492,9.22034 -33.08475,34.71186 -37.9661,43.38983 -4.88136,8.67797 -10.42875,12.22695 -12.34633,23.92417 -1.91757,11.69723 0.76704,34.70816 0.76704,34.70816 l -25.12027,7.09504 z"
     style="fill:#ff0000;stroke:none;stroke-width:1px;stroke-linecap:butt;stroke-linejoin:miter;stroke-opacity:1;fill-opacity:0" />
</svg>
