<?xml version="1.0" encoding="UTF-8" standalone="no"?>
<!-- Created with Inkscape (http://www.inkscape.org/) -->

<svg
   xmlns:dc="http://purl.org/dc/elements/1.1/"
   xmlns:cc="http://creativecommons.org/ns#"
   xmlns:rdf="http://www.w3.org/1999/02/22-rdf-syntax-ns#"
   xmlns:svg="http://www.w3.org/2000/svg"
   xmlns="http://www.w3.org/2000/svg"
   xmlns:sodipodi="http://sodipodi.sourceforge.net/DTD/sodipodi-0.dtd"
   xmlns:inkscape="http://www.inkscape.org/namespaces/inkscape"
   width="5120"
   height="256"
   viewBox="0 0 1354.6666 67.733334"
   version="1.1"
   id="svg8"
   inkscape:version="0.92.4 (5da689c313, 2019-01-14)"
   sodipodi:docname="TaekwondoIcons.svg">
  <defs
     id="defs2" />
  <sodipodi:namedview
     id="base"
     pagecolor="#ffffff"
     bordercolor="#666666"
     borderopacity="1.0"
     inkscape:pageopacity="0.0"
     inkscape:pageshadow="2"
     inkscape:zoom="0.56875"
     inkscape:cx="2561.7283"
     inkscape:cy="478.99596"
     inkscape:document-units="px"
     inkscape:current-layer="layer1"
     showgrid="true"
     units="px"
     inkscape:pagecheckerboard="true"
     inkscape:showpageshadow="true"
     borderlayer="false"
     showborder="true"
     inkscape:snap-bbox="true"
     inkscape:snap-midpoints="true"
     inkscape:bbox-nodes="true"
     inkscape:snap-bbox-edge-midpoints="true"
     gridtolerance="10"
     inkscape:window-width="1920"
     inkscape:window-height="1001"
     inkscape:window-x="2391"
     inkscape:window-y="-9"
     inkscape:window-maximized="1"
     inkscape:snap-bbox-midpoints="true"
     inkscape:object-paths="true"
     inkscape:snap-object-midpoints="true">
    <inkscape:grid
       type="xygrid"
       id="grid5069"
       spacingx="8.4666665"
       spacingy="8.4666665"
       empspacing="8"
       dotted="false"
       enabled="true" />
    <inkscape:grid
       type="xygrid"
       id="grid5209"
       spacingx="67.733332"
       spacingy="67.733332"
       enabled="false" />
  </sodipodi:namedview>
  <metadata
     id="metadata5">
    <rdf:RDF>
      <cc:Work
         rdf:about="">
        <dc:format>image/svg+xml</dc:format>
        <dc:type
           rdf:resource="http://purl.org/dc/dcmitype/StillImage" />
        <dc:title></dc:title>
      </cc:Work>
    </rdf:RDF>
  </metadata>
  <g
     inkscape:label="Layer 1"
     inkscape:groupmode="layer"
     id="layer1"
     transform="translate(0,-229.26665)">
    <path
       style="fill:#ffffff;fill-opacity:1;stroke:none;stroke-width:10.28591442;stroke-linecap:round;stroke-linejoin:round;stroke-miterlimit:4;stroke-dasharray:none;stroke-opacity:0.50499998"
       d="m 281.82413,254.66665 -2.42414,2.43654 v 39.89679 h 8.46667 v -42.33333 z"
       id="rect856"
       inkscape:connector-curvature="0"
       inkscape:export-filename="C:\Users\force\Menu.png"
       inkscape:export-xdpi="96.000008"
       inkscape:export-ydpi="96.000008" />
    <path
       style="fill:#ffffff;fill-opacity:1;stroke:none;stroke-width:10.28591442;stroke-linecap:round;stroke-linejoin:round;stroke-miterlimit:4;stroke-dasharray:none;stroke-opacity:0.50499998"
       d="m 321.73333,254.66665 v 42.33333 h 8.46666 v -39.89679 l -2.42414,-2.43654 z"
       id="rect858"
       inkscape:connector-curvature="0"
       inkscape:export-filename="C:\Users\force\Menu.png"
       inkscape:export-xdpi="96.000008"
       inkscape:export-ydpi="96.000008" />
    <path
       style="fill:#ffffff;fill-opacity:1;stroke:none;stroke-width:9.19999981;stroke-linecap:round;stroke-linejoin:round;stroke-miterlimit:4;stroke-dasharray:none;stroke-opacity:0.50499998"
       d="m 101.6,229.26665 a 21.166666,21.166666 0 0 0 -21.166668,21.16667 h 8.466667 a 12.7,12.7 0 0 1 12.700001,-12.7 12.7,12.7 0 0 1 12.7,12.7 12.7,12.7 0 0 1 -12.7,12.7 12.7,12.7 0 0 1 -4.233335,-0.74259 v 8.75864 A 21.166666,21.166666 0 0 0 101.6,271.59998 21.166666,21.166666 0 0 0 122.76666,250.43332 21.166666,21.166666 0 0 0 101.6,229.26665 Z"
       id="path5101"
       inkscape:connector-curvature="0" />
    <rect
       style="fill:#ffffff;fill-opacity:1;stroke:none;stroke-width:9.19999981;stroke-linecap:round;stroke-linejoin:round;stroke-miterlimit:4;stroke-dasharray:none;stroke-opacity:0.50499998"
       id="rect5110"
       width="8.4666662"
       height="16.933332"
       x="97.366669"
       y="263.13333" />
    <ellipse
       ry="6.7150922"
       rx="6.3500004"
       cy="290.28488"
       cx="101.6"
       id="ellipse5114"
       style="fill:#ffffff;fill-opacity:1;stroke:none;stroke-width:14.19117165;stroke-linecap:round;stroke-linejoin:round;stroke-miterlimit:4;stroke-dasharray:none;stroke-opacity:0.50499998" />
    <path
       style="fill:#ffffff;fill-opacity:1;stroke:none;stroke-width:0.26458332px;stroke-linecap:butt;stroke-linejoin:miter;stroke-opacity:1"
       d="m 177.8,93.799978 25.4,25.400002 -25.4,25.4 z"
       id="path5116"
       inkscape:connector-curvature="0" />
    <path
       style="fill:#ffffff;fill-opacity:1;stroke:none;stroke-width:9.19999981;stroke-linecap:round;stroke-linejoin:round;stroke-miterlimit:4;stroke-dasharray:none;stroke-opacity:0.50499998"
       d="m 152.4,114.96665 a 16.933332,16.933332 0 0 0 -16.93334,16.93333 v 4.23334 4.23333 4.23333 A 16.933332,16.933332 0 0 0 152.4,161.53332 h 16.93333 v -8.46667 H 152.4 a 8.4666663,8.4666663 0 0 1 -8.46667,-8.46667 v -4.23333 -4.23333 -4.23334 A 8.4666663,8.4666663 0 0 1 152.4,123.43332 H 169.33333 177.8 v -0.25322 -8.21345 h -8.46667 z"
       id="rect5118"
       inkscape:connector-curvature="0" />
    <path
       style="fill:#ffffff;fill-opacity:1;stroke:none;stroke-width:9.19999981;stroke-linecap:round;stroke-linejoin:round;stroke-miterlimit:4;stroke-dasharray:none;stroke-opacity:0.50499998"
       d="m 169.33333,229.39326 a 33.866664,33.866664 0 0 0 -33.86667,33.86667 33.866664,33.866664 0 0 0 33.86667,33.86666 A 33.866664,33.866664 0 0 0 203.2,263.25993 33.866664,33.866664 0 0 0 169.33333,229.39326 Z m 0,8.46667 a 25.4,25.4 0 0 1 25.4,25.4 25.4,25.4 0 0 1 -25.4,25.4 25.4,25.4 0 0 1 -25.4,-25.4 25.4,25.4 0 0 1 25.4,-25.4 z"
       id="path5160"
       inkscape:connector-curvature="0"
       inkscape:export-xdpi="96"
       inkscape:export-ydpi="96" />
    <rect
       style="fill:#ffffff;fill-opacity:1;stroke:none;stroke-width:9.19999981;stroke-linecap:round;stroke-linejoin:round;stroke-miterlimit:4;stroke-dasharray:none;stroke-opacity:0.50499998"
       id="rect5169"
       width="50.799999"
       height="8.4666662"
       x="143.93333"
       y="250.55994"
       inkscape:export-xdpi="96"
       inkscape:export-ydpi="96" />
    <rect
       y="267.49326"
       x="143.93333"
       height="8.4666662"
       width="50.799999"
       id="rect5190"
       style="fill:#ffffff;fill-opacity:1;stroke:none;stroke-width:9.19999981;stroke-linecap:round;stroke-linejoin:round;stroke-miterlimit:4;stroke-dasharray:none;stroke-opacity:0.50499998"
       inkscape:export-xdpi="96"
       inkscape:export-ydpi="96" />
    <path
       style="fill:#ffffff;fill-opacity:1;stroke:none;stroke-width:19.24318314;stroke-linecap:round;stroke-linejoin:round;stroke-miterlimit:4;stroke-dasharray:none;stroke-opacity:0.50499998"
       d="m 165.09999,237.85993 a 10.583344,25.4 0 0 0 -10.58333,25.4 10.583344,25.4 0 0 0 10.58333,25.4 h 8.46667 a 10.583344,25.4 0 0 1 -10.58333,-25.4 10.583344,25.4 0 0 1 10.58333,-25.4 z"
       id="path5192"
       inkscape:connector-curvature="0"
       inkscape:export-xdpi="96"
       inkscape:export-ydpi="96" />
    <path
       inkscape:connector-curvature="0"
       id="path5197"
       d="m 173.56666,237.85993 a 10.583344,25.4 0 0 1 10.58333,25.4 10.583344,25.4 0 0 1 -10.58333,25.4 h -8.46667 a 10.583344,25.4 0 0 0 10.58333,-25.4 10.583344,25.4 0 0 0 -10.58333,-25.4 z"
       style="fill:#ffffff;fill-opacity:1;stroke:none;stroke-width:19.24318314;stroke-linecap:round;stroke-linejoin:round;stroke-miterlimit:4;stroke-dasharray:none;stroke-opacity:0.50499998"
       inkscape:export-xdpi="96"
       inkscape:export-ydpi="96" />
    <path
       sodipodi:type="star"
       style="fill:#ffffff;fill-opacity:1;stroke:none;stroke-width:10.62324524;stroke-linecap:round;stroke-linejoin:round;stroke-miterlimit:4;stroke-dasharray:none;stroke-opacity:0.50499998"
       id="path5207"
       sodipodi:sides="3"
       sodipodi:cx="430.18625"
       sodipodi:cy="263.13333"
       sodipodi:r1="39.105862"
       sodipodi:r2="19.552931"
       sodipodi:arg1="0"
       sodipodi:arg2="1.0471976"
       inkscape:flatsided="false"
       inkscape:rounded="0"
       inkscape:randomized="0"
       d="M 469.29211,263.13333 439.96271,280.06667 410.63332,297 V 263.13333 229.26666 L 439.96272,246.2 Z"
       inkscape:transform-center-x="-9.7764571"
       inkscape:transform-center-y="-1.3811359e-05"
       transform="matrix(1.0000021,0,0,1,-203.20085,0)" />
    <path
       transform="matrix(-1.0000021,0,0,1,473.52643,0)"
       inkscape:transform-center-y="-1.3811359e-05"
       inkscape:transform-center-x="9.7764533"
       d="M 469.29211,263.13333 439.96271,280.06667 410.63332,297 V 263.13333 229.26666 L 439.96272,246.2 Z"
       inkscape:randomized="0"
       inkscape:rounded="0"
       inkscape:flatsided="false"
       sodipodi:arg2="1.0471976"
       sodipodi:arg1="0"
       sodipodi:r2="19.552931"
       sodipodi:r1="39.105862"
       sodipodi:cy="263.13333"
       sodipodi:cx="430.18625"
       sodipodi:sides="3"
       id="path5215"
       style="fill:#ffffff;fill-opacity:1;stroke:none;stroke-width:10.62324524;stroke-linecap:round;stroke-linejoin:round;stroke-miterlimit:4;stroke-dasharray:none;stroke-opacity:0.50499998"
       sodipodi:type="star" />
    <rect
       style="fill:#ffffff;fill-opacity:1;stroke:none;stroke-width:9.19999981;stroke-linecap:round;stroke-linejoin:round;stroke-miterlimit:4;stroke-dasharray:none;stroke-opacity:0.50499998"
       id="rect834"
       width="67.73333"
       height="16.933332"
       x="228.59999"
       y="110.73332" />
    <rect
       style="fill:#ffffff;fill-opacity:1;stroke:none;stroke-width:9.19999981;stroke-linecap:round;stroke-linejoin:round;stroke-miterlimit:4;stroke-dasharray:none;stroke-opacity:0.50499998"
       id="rect836"
       width="67.73333"
       height="16.933332"
       x="228.59999"
       y="136.13333" />
    <rect
       style="fill:#ffffff;fill-opacity:1;stroke:none;stroke-width:9.19999981;stroke-linecap:round;stroke-linejoin:round;stroke-miterlimit:4;stroke-dasharray:none;stroke-opacity:0.50499998"
       id="rect838"
       width="67.73333"
       height="16.933332"
       x="228.59999"
       y="161.53333" />
    <rect
       style="fill:#ffffff;fill-opacity:1;stroke:none;stroke-width:9.19999981;stroke-linecap:round;stroke-linejoin:round;stroke-miterlimit:4;stroke-dasharray:none;stroke-opacity:0.50499998"
       id="rect840"
       width="50.799999"
       height="8.4666662"
       x="88.905678"
       y="351.21497"
       transform="rotate(-45)" />
    <rect
       style="fill:#ffffff;fill-opacity:1;stroke:none;stroke-width:9.19999981;stroke-linecap:round;stroke-linejoin:round;stroke-miterlimit:4;stroke-dasharray:none;stroke-opacity:0.50499998"
       id="rect842"
       width="8.4666662"
       height="42.333332"
       x="131.23903"
       y="359.68164"
       transform="rotate(-45)" />
    <rect
       style="fill:#ffffff;fill-opacity:1;stroke:none;stroke-width:10.28591442;stroke-linecap:round;stroke-linejoin:round;stroke-miterlimit:4;stroke-dasharray:none;stroke-opacity:0.50499998"
       id="rect844"
       width="8.4666662"
       height="42.333347"
       x="321.73334"
       y="174.95966" />
    <rect
       style="fill:#ffffff;fill-opacity:1;stroke:none;stroke-width:10.28591442;stroke-linecap:round;stroke-linejoin:round;stroke-miterlimit:4;stroke-dasharray:none;stroke-opacity:0.50499998"
       id="rect846"
       width="8.4666662"
       height="42.333347"
       x="364.06668"
       y="174.95966" />
    <rect
       style="fill:#ffffff;fill-opacity:1;stroke:none;stroke-width:9.19999981;stroke-linecap:round;stroke-linejoin:round;stroke-miterlimit:4;stroke-dasharray:none;stroke-opacity:0.50499998"
       id="rect848"
       width="33.866684"
       height="8.4666834"
       x="330.20001"
       y="208.82632" />
    <path
       style="fill:#ffffff;fill-opacity:1;stroke:none;stroke-width:9.19999981;stroke-linecap:round;stroke-linejoin:round;stroke-miterlimit:4;stroke-dasharray:none;stroke-opacity:0.50499998"
       d="m 304.79999,229.26665 -33.86667,33.86667 5.98673,5.98671 33.86666,-33.86666 z"
       id="rect852"
       inkscape:connector-curvature="0"
       inkscape:export-filename="C:\Users\force\Menu.png"
       inkscape:export-xdpi="96.000008"
       inkscape:export-ydpi="96.000008" />
    <path
       style="fill:#ffffff;fill-opacity:1;stroke:none;stroke-width:9.19999981;stroke-linecap:round;stroke-linejoin:round;stroke-miterlimit:4;stroke-dasharray:none;stroke-opacity:0.50499998"
       d="m 310.78671,235.25337 -5.98672,5.98671 27.87994,27.87995 5.98672,-5.98671 z"
       id="rect854"
       inkscape:connector-curvature="0"
       inkscape:export-filename="C:\Users\force\Menu.png"
       inkscape:export-xdpi="96.000008"
       inkscape:export-ydpi="96.000008" />
    <rect
       y="288.53329"
       x="287.86664"
       height="8.4666834"
       width="33.866684"
       id="rect860"
       style="fill:#ffffff;fill-opacity:1;stroke:none;stroke-width:9.19999981;stroke-linecap:round;stroke-linejoin:round;stroke-miterlimit:4;stroke-dasharray:none;stroke-opacity:0.50499998"
       inkscape:export-filename="C:\Users\force\Menu.png"
       inkscape:export-xdpi="96.000008"
       inkscape:export-ydpi="96.000008" />
    <rect
       style="fill:#ffffff;fill-opacity:1;stroke:none;stroke-width:9.19999981;stroke-linecap:round;stroke-linejoin:round;stroke-miterlimit:4;stroke-dasharray:none;stroke-opacity:0.50499998"
       id="rect868"
       width="16.933332"
       height="16.933332"
       x="296.33331"
       y="271.59998"
       inkscape:export-filename="C:\Users\force\Menu.png"
       inkscape:export-xdpi="96.000008"
       inkscape:export-ydpi="96.000008" />
    <path
       inkscape:connector-curvature="0"
       id="path959"
       d="m 414.86666,186.93331 v 8.46667 l -16.93334,16.93333 v -16.93333 -8.46667 z"
       style="fill:#ffffff;fill-opacity:1;stroke:none;stroke-width:0.26458332px;stroke-linecap:butt;stroke-linejoin:miter;stroke-opacity:1" />
    <path
       style="fill:#ffffff;fill-opacity:1;stroke:none;stroke-width:0.13229163px;stroke-linecap:butt;stroke-linejoin:miter;stroke-opacity:1"
       d="m 368.29998,229.26665 8.46669,33.86666 -8.46665,33.86667 z"
       id="path969"
       inkscape:connector-curvature="0" />
    <rect
       style="fill:#ffffff;fill-opacity:1;stroke:none;stroke-width:9.19999981;stroke-linecap:round;stroke-linejoin:round;stroke-miterlimit:4;stroke-dasharray:none;stroke-opacity:0.50499998"
       id="rect971"
       width="16.933332"
       height="67.73333"
       x="431.79999"
       y="229.26665" />
    <rect
       style="fill:#ffffff;fill-opacity:1;stroke:none;stroke-width:9.19999981;stroke-linecap:round;stroke-linejoin:round;stroke-miterlimit:4;stroke-dasharray:none;stroke-opacity:0.50499998"
       id="rect973"
       width="67.73333"
       height="16.933332"
       x="406.39999"
       y="254.66666" />
    <rect
       y="413.64816"
       x="194.61443"
       height="76.63147"
       width="16.933273"
       id="rect975"
       style="fill:#ffffff;fill-opacity:1;stroke:none;stroke-width:9.78564453;stroke-linecap:round;stroke-linejoin:round;stroke-miterlimit:4;stroke-dasharray:none;stroke-opacity:0.50499998"
       transform="rotate(-45)" />
    <rect
       y="443.49734"
       x="164.76534"
       height="16.933222"
       width="76.63147"
       id="rect977"
       style="fill:#ffffff;fill-opacity:1;stroke:none;stroke-width:9.78562927;stroke-linecap:round;stroke-linejoin:round;stroke-miterlimit:4;stroke-dasharray:none;stroke-opacity:0.50499998"
       transform="rotate(-45)" />
    <path
       style="fill:#ffffff;fill-opacity:1;stroke:none;stroke-width:9.05054188;stroke-linecap:round;stroke-linejoin:round;stroke-miterlimit:4;stroke-dasharray:none;stroke-opacity:0.50499998"
       d="m 880.53331,229.26665 v 8.46667 50.82842 a 27.214283,8.4666663 0 0 1 25.39999,8.41344 v -59.24186 -0.0284 a 27.214283,8.4666663 0 0 0 -25.39999,-8.43824 z"
       id="rect981"
       inkscape:connector-curvature="0" />
    <path
       style="fill:#ffffff;fill-opacity:1;stroke:none;stroke-width:9.05054474;stroke-linecap:round;stroke-linejoin:round;stroke-miterlimit:4;stroke-dasharray:none;stroke-opacity:0.50499998"
       d="m 948.26664,229.26665 a 27.214301,8.4666663 0 0 0 -25.40001,8.43824 v 0.0284 59.24186 a 27.214301,8.4666663 0 0 1 25.40001,-8.41344 v -50.82842 z"
       id="path1000"
       inkscape:connector-curvature="0" />
    <path
       style="fill:#ffffff;fill-opacity:1;stroke:none;stroke-width:9.19999981;stroke-linecap:round;stroke-linejoin:round;stroke-miterlimit:4;stroke-dasharray:none;stroke-opacity:0.50499998"
       d="m 668.86665,119.19999 v 67.73333 h 33.86666 v -33.86667 h -25.4 v -8.46666 -16.93334 h 25.4 v -8.46666 z"
       id="rect1004"
       inkscape:connector-curvature="0" />
    <path
       id="path1017"
       d="m 728.1333,119.19999 v 67.73333 h -33.86667 v -33.86666 h 25.4 v -8.46667 -16.93333 h -25.4 v -8.46667 z"
       style="fill:#ffffff;fill-opacity:1;stroke:none;stroke-width:9.19999981;stroke-linecap:round;stroke-linejoin:round;stroke-miterlimit:4;stroke-dasharray:none;stroke-opacity:0.50499998"
       inkscape:connector-curvature="0" />
    <path
       style="fill:#ffffff;fill-opacity:1;stroke:none;stroke-width:9.19999981;stroke-linecap:round;stroke-linejoin:round;stroke-miterlimit:4;stroke-dasharray:none;stroke-opacity:0.50499998"
       d="m 728.1333,119.19999 v 4.23333 h 4.23333 v 59.26667 h -4.23333 v 4.23333 h 8.46667 v -67.73333 z"
       id="rect1019"
       inkscape:connector-curvature="0" />
    <rect
       style="fill:#ffffff;fill-opacity:1;stroke:none;stroke-width:13.01072121;stroke-linecap:round;stroke-linejoin:round;stroke-miterlimit:4;stroke-dasharray:none;stroke-opacity:0.50499998"
       id="rect1030"
       width="8.4666481"
       height="59.241867"
       x="910.16669"
       y="237.73332" />
    <path
       style="fill:#ffffff;fill-opacity:1;stroke:none;stroke-width:13.80000782;stroke-linecap:round;stroke-linejoin:round;stroke-miterlimit:4;stroke-dasharray:none;stroke-opacity:0.50499998"
       d="m 507.99999,229.26665 c 0,0 -27.41068,26.00039 -25.4,42.33333 1.46298,11.88396 11.37195,25.39999 25.4,25.4 14.02805,-10e-6 23.93701,-13.51604 25.4,-25.4 2.01067,-16.33294 -25.4,-42.33333 -25.4,-42.33333 z"
       id="path1034"
       inkscape:connector-curvature="0"
       sodipodi:nodetypes="cacac" />
    <path
       style="fill:#ffffff;fill-opacity:1;stroke:none;stroke-width:9.19999981;stroke-linecap:round;stroke-linejoin:round;stroke-miterlimit:4;stroke-dasharray:none;stroke-opacity:0.50499998"
       d="m 643.46665,229.26665 a 33.866666,33.866666 0 0 0 -33.86667,33.86667 33.866666,33.866666 0 0 0 33.86667,33.86666 33.866666,33.866666 0 0 0 33.86667,-33.86666 33.866666,33.866666 0 0 0 -33.86667,-33.86667 z m 0,16.93333 a 16.933333,16.933333 0 0 1 16.93333,16.93334 16.933333,16.933333 0 0 1 -16.93333,16.93333 16.933333,16.933333 0 0 1 -16.93333,-16.93333 16.933333,16.933333 0 0 1 16.93333,-16.93334 z"
       id="path1049"
       inkscape:connector-curvature="0" />
    <ellipse
       style="fill:#ffffff;fill-opacity:1;stroke:none;stroke-width:12.26666927;stroke-linecap:round;stroke-linejoin:round;stroke-miterlimit:4;stroke-dasharray:none;stroke-opacity:0.50499998"
       id="path1058"
       cx="694.26666"
       cy="246.19998"
       rx="16.933338"
       ry="16.933336" />
    <ellipse
       style="fill:#ffffff;fill-opacity:1;stroke:none;stroke-width:12.26667309;stroke-linecap:round;stroke-linejoin:round;stroke-miterlimit:4;stroke-dasharray:none;stroke-opacity:0.50499998"
       id="path1060"
       cx="728.13324"
       cy="280.06665"
       rx="16.93335"
       ry="16.933336" />
    <circle
       style="fill:#ffffff;fill-opacity:1;stroke:none;stroke-width:12.26667023;stroke-linecap:round;stroke-linejoin:round;stroke-miterlimit:4;stroke-dasharray:none;stroke-opacity:0.50499998"
       id="path1064"
       cx="756.35553"
       cy="263.13333"
       r="11.288892" />
    <circle
       style="fill:#ffffff;fill-opacity:1;stroke:none;stroke-width:12.26667023;stroke-linecap:round;stroke-linejoin:round;stroke-miterlimit:4;stroke-dasharray:none;stroke-opacity:0.50499998"
       id="path1066"
       cx="778.93335"
       cy="263.13333"
       r="11.288892" />
    <circle
       style="fill:#ffffff;fill-opacity:1;stroke:none;stroke-width:12.26667023;stroke-linecap:round;stroke-linejoin:round;stroke-miterlimit:4;stroke-dasharray:none;stroke-opacity:0.50499998"
       id="path1068"
       cx="801.51111"
       cy="263.13333"
       r="11.288892" />
    <path
       transform="matrix(0,-1.0000021,1,0,312.59999,703.09695)"
       inkscape:transform-center-y="-9.7764585"
       inkscape:transform-center-x="1.0006798e-05"
       d="M 469.29211,263.13333 439.96271,280.06667 410.63332,297 V 263.13333 229.26666 L 439.96272,246.2 Z"
       inkscape:randomized="0"
       inkscape:rounded="0"
       inkscape:flatsided="false"
       sodipodi:arg2="1.0471976"
       sodipodi:arg1="0"
       sodipodi:r2="19.552931"
       sodipodi:r1="39.105862"
       sodipodi:cy="263.13333"
       sodipodi:cx="430.18625"
       sodipodi:sides="3"
       id="path1070"
       style="fill:#ffffff;fill-opacity:1;stroke:none;stroke-width:10.62324524;stroke-linecap:round;stroke-linejoin:round;stroke-miterlimit:4;stroke-dasharray:none;stroke-opacity:0.50499998"
       sodipodi:type="star" />
    <rect
       style="fill:#ffffff;fill-opacity:1;stroke:none;stroke-width:8.63480186;stroke-linecap:round;stroke-linejoin:round;stroke-miterlimit:4;stroke-dasharray:none;stroke-opacity:0.50499998"
       id="rect1072"
       width="29.833338"
       height="67.733322"
       x="812.79999"
       y="229.26666" />
    <rect
       y="229.26666"
       x="850.69995"
       height="67.733322"
       width="29.833338"
       id="rect1074"
       style="fill:#ffffff;fill-opacity:1;stroke:none;stroke-width:8.63480186;stroke-linecap:round;stroke-linejoin:round;stroke-miterlimit:4;stroke-dasharray:none;stroke-opacity:0.50499998" />
  </g>
</svg>
